<svg width="104" height="104" viewBox="0 0 104 104" fill="none" xmlns="http://www.w3.org/2000/svg">
<rect width="104" height="104" fill="#FFF" class="background"/>
<path d="M26.3268 81H6.118V21.3636H26.7345C32.6554 21.3636 37.7416 22.5575 41.993 24.9453C46.2638 27.3137 49.5446 30.7206 51.8353 35.1662C54.1261 39.6117 55.2714 44.9309 55.2714 51.1236C55.2714 57.3357 54.1163 62.6742 51.8062 67.1392C49.5155 71.6042 46.2056 75.0305 41.8765 77.4183C37.5669 79.8061 32.3836 81 26.3268 81ZM16.9213 71.6527H25.8027C29.957 71.6527 33.4222 70.8956 36.1983 69.3814C38.9743 67.8478 41.0612 65.5668 42.4589 62.5384C43.8566 59.4905 44.5555 55.6856 44.5555 51.1236C44.5555 46.5616 43.8566 42.776 42.4589 39.767C41.0612 36.7386 38.9937 34.477 36.2565 32.9822C33.5387 31.468 30.1608 30.7109 26.123 30.7109H16.9213V71.6527ZM52.8927 30.4197V21.3636H100.474V30.4197H82.0411V81H71.3252V30.4197H52.8927Z" fill="#000" class="contrast"/>
<path d="M52.0252 31.7592V21.3636H101.004V31.7592H82.7461V81H70.283V31.7592H52.0252Z" fill="#0000EE" class="accent"/>
</svg>
