<svg width="67" height="40" viewBox="0 0 67 40" fill="none" xmlns="http://www.w3.org/2000/svg">
<path d="M13.4621 40H0V0H13.7337C17.6779 0 21.066 0.800782 23.8981 2.40234C26.7431 3.99089 28.9286 6.27604 30.4546 9.25781C31.9805 12.2396 32.7435 15.8073 32.7435 19.9609C32.7435 24.1276 31.9741 27.7083 30.4352 30.7031C28.9092 33.6979 26.7043 35.9961 23.8205 37.5977C20.9496 39.1992 17.4968 40 13.4621 40ZM7.19659 33.7305H13.1129C15.8804 33.7305 18.1887 33.2227 20.038 32.207C21.8872 31.1784 23.2774 29.6484 24.2085 27.6172C25.1396 25.5729 25.6051 23.0208 25.6051 19.9609C25.6051 16.901 25.1396 14.362 24.2085 12.3438C23.2774 10.3125 21.9001 8.79558 20.0767 7.79297C18.2663 6.77735 16.0161 6.26953 13.3263 6.26953H7.19659V33.7305Z" fill="black"/>
<path d="M34.4364 6.07422V0H66.1324V6.07422H53.8536V40H46.7152V6.07422H34.4364Z" fill="black"/>
<path d="M34.804 6.07422V0H66.5V6.07422H54.2212V40H47.0828V6.07422H34.804Z" fill="#3C00E6"/>
</svg>
